<?xml version="1.0" encoding="UTF-8"?>
<svg data-bbox="0.25 0.25 344.5 99.5" viewBox="0 0 345 100" xmlns:xlink="http://www.w3.org/1999/xlink" xmlns="http://www.w3.org/2000/svg" data-type="ugc">
    <g>
        <path d="M90.35 50c0-22.53-18.18-40.8-40.59-40.8C27.33 9.2 9.15 27.47 9.15 50s18.18 40.8 40.6 40.8 40.6-18.27 40.6-40.8" fill="#00458f"/>
        <defs>
            <path d="M49.75.25C22.41.25.25 22.52.25 50s22.16 49.75 49.5 49.75S99.25 77.47 99.25 50C99.25 22.52 77.08.25 49.75.25m29.93 68.04c-6.56 6.78-15.23 10.84-23.18 10.84-14.9 0-27.36-11.69-28.36-26.61-.03-.37-.05-.74-.06-1.13-.03-.84-.48-20.46 15.48-24.85V70.9l.44-.46c.19-.19 19.19-19.37 22.33-30.44 1.05-4.41.79-7.51-.77-9.21-1.18-1.27-3.05-1.71-5.61-1.3-.17.05-4.15 1.11-7.35 6.54 0-7.18.02-13.07.03-15.36V19.4l-.23-.03c-.96-.1-1.94-.14-2.89-.14-16.44 0-28.83 13.92-28.83 32.39 0 19.27 15.61 34.96 34.79 34.96 8.9 0 17.48-3.38 24.13-8.93-7.42 8.08-18.05 13.15-29.85 13.15-22.42 0-40.6-18.27-40.6-40.8S27.33 9.2 49.75 9.2c17.33 0 32.11 10.91 37.93 26.26 3.31 16.05-1.82 26.43-8 32.83M51.14 54.91V42.8s3.23-4.03 6.29-3.24c1.49.79 2.88 4.41-.7 9.49-3.58 5.07-4.63 5.42-5.59 5.86" id="3e98d658-d7e0-4521-9afc-c2fd62ebd8a2"/>
        </defs>
        <clipPath id="524832b4-563e-47bb-a640-b41e7bd2cbf1">
            <use xlink:href="#3e98d658-d7e0-4521-9afc-c2fd62ebd8a2" overflow="visible"/>
        </clipPath>
        <linearGradient y2="50" x2=".25" y1="50" x1="99.25" gradientUnits="userSpaceOnUse" id="31649f3f-9c0f-4905-9615-ad88cc42fc9a">
            <stop offset="0" stop-color="#c49540"/>
            <stop offset="1" stop-color="#f0d46f"/>
        </linearGradient>
        <path clip-path="url(#524832b4-563e-47bb-a640-b41e7bd2cbf1)" fill="url(#31649f3f-9c0f-4905-9615-ad88cc42fc9a)" d="M99.25.25v99.5h-99V.25z"/>
        <path d="M114.73 22.62h12.24c3 0 5.11.75 6.51 2.12.95.99 1.53 2.26 1.53 3.91v.07c0 2.78-1.57 4.42-3.68 5.35 2.9.96 4.74 2.61 4.74 5.86V40c0 4.11-3.34 6.62-9.04 6.62h-12.31v-24zm13.77 7.4c0-1.34-1.06-2.06-3-2.06h-4.33v4.22h4.16c2.01 0 3.17-.69 3.17-2.09zm-2.28 6.82h-5.05v4.42h5.12c2.05 0 3.17-.79 3.17-2.19V39c0-1.3-1.02-2.16-3.24-2.16"/>
        <path d="M139.28 22.62h6.62v23.99h-6.62zm.41-6.38h5.8v4.73h-5.8z"/>
        <path d="M150.26 22.62h11.29c3.65 0 6.17.96 7.78 2.57 1.4 1.4 2.11 3.22 2.11 5.59v.07c0 3.7-1.94 6.14-4.91 7.4l5.69 8.36h-7.6l-4.81-7.27h-2.93v7.27h-6.62zm11.02 11.51c2.22 0 3.55-1.1 3.55-2.84v-.07c0-1.92-1.4-2.88-3.58-2.88h-4.36v5.79z"/>
        <path d="M174.78 22.62h6.62v18.17h11.56v5.83h-18.18z"/>
        <path d="M195.99 22.62h6.62v23.99h-6.62zm.41-6.38h5.8v4.73h-5.8z"/>
        <path d="M206.97 22.62h6.62v9.73l8.25-9.73h7.81l-9.04 10.28 9.34 13.71h-7.91l-6.03-8.91-2.42 2.67v6.24h-6.62z"/>
        <path d="M239.44 22.62h7.36l5.42 15.18 5.46-15.18h7.23l-9.68 24.16h-6.14z"/>
        <path d="M272.08 22.44h6.38l10.16 24.16h-7.09l-1.71-4.32h-9.24l-1.71 4.32h-6.92zm5.79 14.67-2.66-6.79-2.69 6.79z"/>
        <path d="M290.93 22.62h6.62v9.73l8.25-9.73h7.81l-9.04 10.28 9.34 13.71H306l-6.03-8.91-2.42 2.67v6.24h-6.62z"/>
        <path d="M315.83 22.62h19.1v5.83h-12.48v4.08h11.29v5.52h-11.29v8.57h-6.62z"/>
        <path d="M338.13 22.62h6.62v23.99h-6.62z"/>
        <path d="M115.31 60.33h8.12c2.18 0 3.9.63 4.99 1.7.79.82 1.23 1.84 1.23 3.07v.05c0 2.49-1.53 3.78-3.03 4.44 2.26.69 4.09 2 4.09 4.63v.06c0 3.29-2.75 5.23-6.93 5.23h-8.48V60.33zm12.16 5.07c0-1.89-1.5-3.12-4.23-3.12h-5.81v6.61h5.64c2.59 0 4.39-1.18 4.39-3.43v-.06zm-4.01 5.4h-6.03v6.77h6.41c2.89 0 4.69-1.29 4.69-3.43v-.05c.01-2.09-1.74-3.29-5.07-3.29"/>
        <path d="M134.71 71.48V60.33h2.15v11.02c0 4.14 2.21 6.47 5.83 6.47 3.52 0 5.75-2.14 5.75-6.33V60.33h2.15v10.99c0 5.59-3.19 8.5-7.96 8.5-4.7-.01-7.92-2.91-7.92-8.34"/>
        <path d="M155.72 60.33h8.21c2.34 0 4.23.71 5.43 1.92.93.93 1.47 2.27 1.47 3.78v.05c0 3.18-2.18 5.04-5.18 5.59l5.86 7.84h-2.64l-5.54-7.45h-5.45v7.45h-2.15V60.33zm8.01 9.78c2.86 0 4.91-1.48 4.91-3.95v-.05c0-2.36-1.8-3.78-4.88-3.78h-5.89v7.78z"/>
        <path d="m174.19 76.72 1.34-1.59c1.99 1.81 3.9 2.71 6.54 2.71 2.56 0 4.25-1.37 4.25-3.26v-.05c0-1.78-.95-2.8-4.96-3.65-4.39-.96-6.41-2.38-6.41-5.54v-.05c0-3.01 2.64-5.23 6.27-5.23 2.78 0 4.77.79 6.71 2.36l-1.25 1.67c-1.77-1.45-3.54-2.08-5.51-2.08-2.48 0-4.06 1.37-4.06 3.1v.05c0 1.81.98 2.82 5.18 3.73 4.25.93 6.22 2.49 6.22 5.43v.05c0 3.29-2.73 5.43-6.52 5.43-3.03-.01-5.51-1.03-7.8-3.08"/>
        <path d="M199.56 60.19h2.02l8.7 19.32h-2.32l-2.24-5.07h-10.39l-2.26 5.07h-2.21zm5.31 12.28-4.34-9.76-4.36 9.76z"/>
        <path d="m225.53 82.83 2.1-3.1c-2.51-.22-4.66-1.2-6.65-3.01l1.34-1.59c1.99 1.81 3.9 2.71 6.54 2.71 2.56 0 4.25-1.37 4.25-3.26v-.05c0-1.78-.95-2.8-4.96-3.65-4.39-.96-6.41-2.38-6.41-5.54v-.05c0-3.01 2.64-5.23 6.27-5.23 2.78 0 4.77.79 6.71 2.36l-1.25 1.67c-1.77-1.45-3.55-2.08-5.51-2.08-2.48 0-4.06 1.37-4.06 3.1v.05c0 1.81.98 2.82 5.18 3.73 4.25.93 6.22 2.49 6.22 5.43v.05c0 3.1-2.43 5.15-5.89 5.4l-1.83 4z"/>
        <path d="M239.39 71.48V60.33h2.15v11.02c0 4.14 2.21 6.47 5.83 6.47 3.52 0 5.75-2.14 5.75-6.33V60.33h2.15v10.99c0 5.59-3.19 8.5-7.96 8.5-4.7-.01-7.92-2.91-7.92-8.34"/>
        <path d="M260.4 60.33h8.13c2.18 0 3.9.63 4.99 1.7.79.82 1.23 1.84 1.23 3.07v.05c0 2.49-1.53 3.78-3.03 4.44 2.26.69 4.09 2 4.09 4.63v.06c0 3.29-2.76 5.23-6.93 5.23h-8.48zm12.16 5.07c0-1.89-1.5-3.12-4.23-3.12h-5.81v6.61h5.64c2.59 0 4.39-1.18 4.39-3.43v-.06zm-4.01 5.4h-6.03v6.77h6.41c2.89 0 4.69-1.29 4.69-3.43v-.05c0-2.09-1.74-3.29-5.07-3.29"/>
        <path d="M280.1 60.33h13.8v1.97h-11.64v6.55h10.42v1.97h-10.42v6.71h11.78v1.97H280.1z"/>
        <path d="m297.12 76.72 1.34-1.59c1.99 1.81 3.9 2.71 6.54 2.71 2.56 0 4.25-1.37 4.25-3.26v-.05c0-1.78-.95-2.8-4.96-3.65-4.39-.96-6.41-2.38-6.41-5.54v-.05c0-3.01 2.64-5.23 6.27-5.23 2.78 0 4.77.79 6.71 2.36l-1.25 1.67c-1.77-1.45-3.55-2.08-5.51-2.08-2.48 0-4.06 1.37-4.06 3.1v.05c0 1.81.98 2.82 5.18 3.73 4.25.93 6.22 2.49 6.22 5.43v.05c0 3.29-2.73 5.43-6.52 5.43-3.03-.01-5.51-1.03-7.8-3.08"/>
        <path d="M315.81 56.16h2.62v2.47h-2.62zm.22 4.17h2.15v19.18h-2.15z"/>
    </g>
</svg>
